<svg width="24" height="25" viewBox="0 0 24 25" fill="none" xmlns="http://www.w3.org/2000/svg">
<path d="M10.1112 2.5C5.82482 2.5 2.33337 6.24083 2.33337 10.8333C2.33337 15.4258 5.82482 19.1667 10.1112 19.1667C11.9751 19.1667 13.6869 18.4575 15.0285 17.2803L19.6724 22.2559C19.744 22.3358 19.8299 22.3997 19.9248 22.4437C20.0198 22.4877 20.1221 22.5109 20.2255 22.512C20.329 22.5132 20.4317 22.4922 20.5275 22.4502C20.6233 22.4083 20.7103 22.3464 20.7835 22.268C20.8567 22.1896 20.9145 22.0963 20.9536 21.9937C20.9927 21.891 21.0123 21.781 21.0113 21.6702C21.0102 21.5593 20.9885 21.4498 20.9475 21.348C20.9064 21.2462 20.8468 21.1543 20.7722 21.0775L16.1283 16.1019C17.227 14.6645 17.8889 12.8304 17.8889 10.8333C17.8889 6.24083 14.3975 2.5 10.1112 2.5ZM10.1112 4.16667C13.5568 4.16667 16.3334 7.14156 16.3334 10.8333C16.3334 14.5251 13.5568 17.5 10.1112 17.5C6.6655 17.5 3.88893 14.5251 3.88893 10.8333C3.88893 7.14156 6.6655 4.16667 10.1112 4.16667Z" fill="black"/>
</svg>
